<svg xmlns="http://www.w3.org/2000/svg" width="320" height="508" viewBox="0 0 320 508">
    <path fill="#21D1B0" fill-rule="evenodd" d="M-.196 3.455C-163.092 32.178-259.16 200.22-235.012 337.17-213.743 457.79-72.719 516.85 48.271 506.023c94.213-8.43 473.777-142.553 443.113-316.505C481.544 133.7 440.84 82.984 382.43 65.584c-29.824-8.886-62.095-8.429-91.957 1.216-27.135 8.763-62.744 44.595-92.394 35.938-7.836-2.288-14.175-7.727-19.727-13.462-13.861-14.316-24.399-31.277-37.28-46.413-21.137-24.834-49.475-37.679-82.575-41.61C39.338-1.024 19.513-.02-.196 3.455z"/>
</svg>
